<?xml version="1.0" standalone="no"?>
<!DOCTYPE svg PUBLIC "-//W3C//DTD SVG 20010904//EN"
 "http://www.w3.org/TR/2001/REC-SVG-20010904/DTD/svg10.dtd">
<svg version="1.0" xmlns="http://www.w3.org/2000/svg"
 width="460.000000pt" height="460.000000pt" viewBox="0 0 460.000000 460.000000"
 preserveAspectRatio="xMidYMid meet">
<metadata>
Created by potrace 1.14, written by Peter Selinger 2001-2017
</metadata>
<g transform="translate(0.000000,460.000000) scale(0.100000,-0.100000)"
fill="#000000" stroke="none">
<path d="M0 2300 l0 -2300 2300 0 2300 0 0 2300 0 2300 -2300 0 -2300 0 0
-2300z m2648 1867 c90 -27 147 -50 217 -92 52 -30 99 -64 105 -74 5 -11 18
-22 29 -26 28 -8 114 -130 154 -215 49 -108 55 -127 67 -205 12 -72 14 -77 69
-132 18 -18 31 -36 29 -39 -3 -3 -32 4 -64 15 -80 26 -204 51 -256 51 -68 0
-168 -25 -241 -60 -69 -32 -174 -126 -202 -180 -15 -30 -77 -60 -123 -60 -46
0 -66 -27 -51 -67 7 -20 15 -23 66 -23 88 0 158 41 205 119 l20 34 23 -57 c28
-70 36 -79 90 -111 94 -55 227 -21 280 72 34 59 39 144 12 186 -22 34 -22 50
1 44 9 -3 62 -17 117 -32 l100 -26 1 -113 0 -113 -69 -6 c-70 -6 -95 -17 -195
-88 -106 -76 -172 -261 -143 -400 10 -48 73 -169 92 -177 4 -2 28 -19 53 -37
l44 -35 -29 -52 c-40 -72 -66 -160 -79 -265 -25 -195 -81 -313 -150 -313 -6 0
-10 72 -10 179 l0 179 34 6 c49 9 111 79 120 135 8 50 -12 91 -43 91 -25 0
-37 -16 -50 -67 -20 -75 -6 -73 -548 -73 -537 0 -518 -3 -529 71 -8 45 -26 69
-54 69 -39 0 -52 -71 -26 -135 16 -37 88 -95 118 -95 17 0 18 -12 18 -180 0
-198 -2 -203 -57 -156 -43 37 -69 106 -98 271 -29 159 -75 299 -105 317 -16
10 -11 16 42 56 64 48 96 92 129 175 42 104 14 250 -68 370 -56 81 -194 157
-284 157 l-38 0 -3 111 c-2 61 1 113 6 117 12 7 220 61 224 58 1 -2 -7 -25
-19 -51 -57 -129 50 -278 199 -277 99 1 187 74 194 161 3 39 7 37 50 -19 47
-62 117 -99 189 -100 62 0 83 14 77 52 -3 24 -22 33 -93 44 -30 4 -50 17 -83
52 -128 137 -150 156 -207 182 -88 40 -118 49 -198 56 -81 7 -162 -5 -280 -43
-43 -13 -81 -23 -83 -20 -3 2 15 26 39 53 39 44 46 59 66 154 26 115 85 242
143 309 18 21 40 46 49 57 27 31 92 84 140 111 24 14 59 34 78 45 38 22 168
62 271 84 45 9 115 12 230 10 154 -4 173 -6 288 -39z m62 -2339 c0 -210 0
-211 -25 -244 -38 -49 -157 -105 -239 -111 l-66 -6 0 91 c0 95 -11 122 -49
122 -33 0 -41 -22 -41 -117 l0 -93 -48 0 c-107 0 -251 70 -278 136 -10 25 -14
85 -14 234 l0 200 380 0 380 0 0 -212z m-422 -1010 l-3 -273 -72 -3 -72 -3 -7
38 c-3 21 -23 117 -44 213 -21 96 -41 196 -45 222 -6 44 -4 48 17 53 63 14
128 23 176 24 l52 1 -2 -272z m250 258 c45 -7 84 -15 86 -17 2 -2 -10 -60 -25
-129 -16 -69 -36 -168 -44 -220 -8 -52 -19 -111 -23 -130 l-8 -35 -72 -3 -72
-3 0 276 0 275 38 0 c20 0 74 -6 120 -14z"/>
<path d="M1907 3617 c-19 -15 -29 -48 -19 -63 4 -7 52 -33 107 -59 107 -51
179 -112 191 -162 15 -66 54 -92 88 -57 27 27 19 77 -21 137 -34 49 -130 137
-150 137 -5 0 -26 9 -47 20 -79 43 -133 60 -149 47z"/>
<path d="M2621 3579 c-109 -52 -203 -129 -227 -186 -17 -40 -18 -105 -2 -121
30 -30 78 0 78 50 0 47 83 119 202 175 100 47 118 66 99 101 -19 35 -46 31
-150 -19z"/>
<path d="M2262 3019 c-57 -37 -62 -58 -93 -392 -15 -170 -31 -312 -34 -316 -4
-3 -20 9 -36 27 -27 30 -29 38 -29 111 0 105 -31 140 -80 91 -17 -17 -20 -33
-20 -102 1 -91 7 -106 63 -168 65 -69 174 -110 298 -110 131 0 252 49 314 128
35 45 35 46 35 148 0 92 -2 104 -19 114 -21 10 -51 4 -63 -14 -4 -6 -8 -45 -8
-86 0 -68 -3 -78 -29 -110 -16 -19 -33 -32 -36 -28 -8 7 -54 486 -55 561 -1
127 -113 206 -208 146z m106 -107 c6 -15 13 -76 16 -137 3 -60 14 -199 23
-307 9 -109 14 -201 9 -205 -11 -11 -164 -9 -174 2 -5 6 3 133 19 305 16 162
28 307 29 322 0 57 59 72 78 20z"/>
</g>
</svg>
